<svg width="45" height="40" viewBox="0 0 45 40" fill="none" xmlns="http://www.w3.org/2000/svg">
<path d="M19.6104 39.961L15.3217 38.5781C14.8717 38.4375 14.6186 37.914 14.7451 37.414L24.342 0.676834C24.4686 0.176797 24.9397 -0.104475 25.3896 0.036161L29.6783 1.41908C30.1283 1.55971 30.3814 2.08319 30.2549 2.58323L20.658 39.3204C20.5244 39.8204 20.0603 40.1095 19.6104 39.961ZM11.5954 31.1948L14.6537 27.5695C14.9771 27.1866 14.9561 26.5772 14.5975 26.2256L8.22768 19.9986L14.5975 13.7716C14.9561 13.42 14.9842 12.8106 14.6537 12.4277L11.5954 8.80245C11.279 8.42742 10.7447 8.40398 10.4002 8.76338L0.268924 19.311C-0.0896414 19.6783 -0.0896414 20.3111 0.268924 20.6783L10.4002 31.2338C10.7447 31.5932 11.279 31.5776 11.5954 31.1948ZM34.5998 31.2416L44.7311 20.6862C45.0896 20.3189 45.0896 19.6861 44.7311 19.3189L34.5998 8.75557C34.2624 8.40398 33.728 8.4196 33.4046 8.79463L30.3463 12.4199C30.0229 12.8027 30.0439 13.4122 30.4025 13.7638L36.7723 19.9986L30.4025 26.2256C30.0439 26.5772 30.0158 27.1866 30.3463 27.5695L33.4046 31.1948C33.721 31.5776 34.2553 31.5932 34.5998 31.2416Z" fill="#EC0868"/>
</svg>
