<svg width="40" height="40" viewBox="0 0 40 40" fill="none" xmlns="http://www.w3.org/2000/svg">
<path d="M0.969717 11.5645L19.168 19.8198C19.6992 20.0612 20.3 20.0612 20.8312 19.8198L39.0295 11.5645C40.3225 10.9778 40.3225 9.02389 39.0295 8.43718L20.832 0.181049C20.571 0.061747 20.2874 0 20.0004 0C19.7134 0 19.4298 0.061747 19.1688 0.181049L0.969717 8.4364C-0.323239 9.02311 -0.323239 10.9778 0.969717 11.5645ZM39.0303 18.4613L34.492 16.4043L21.864 22.1284C21.2734 22.3964 20.6461 22.5323 20 22.5323C19.3539 22.5323 18.7274 22.3964 18.136 22.1284L5.50874 16.4043L0.969717 18.4613C-0.323239 19.0472 -0.323239 21.0003 0.969717 21.5862L19.168 29.8353C19.6992 30.0759 20.3 30.0759 20.8312 29.8353L39.0303 21.5862C40.3232 21.0003 40.3232 19.0472 39.0303 18.4613V18.4613ZM39.0303 28.4455L34.5092 26.3963L21.864 32.1282C21.2734 32.3962 20.6461 32.5321 20 32.5321C19.3539 32.5321 18.7274 32.3962 18.136 32.1282L5.49155 26.3963L0.969717 28.4455C-0.323239 29.0314 -0.323239 30.9845 0.969717 31.5704L19.168 39.8195C19.6992 40.0602 20.3 40.0602 20.8312 39.8195L39.0303 31.5704C40.3232 30.9845 40.3232 29.0314 39.0303 28.4455V28.4455Z" fill="#EC0868"/>
</svg>
