<svg width="40" height="40" viewBox="0 0 40 40" fill="none" xmlns="http://www.w3.org/2000/svg">
<path d="M38.8984 11.0962L35.2967 14.6979C34.9295 15.0652 34.3357 15.0652 33.9685 14.6979L25.2962 6.02567C24.929 5.65847 24.929 5.06469 25.2962 4.69748L28.8979 1.09575C30.3589 -0.365251 32.734 -0.365251 34.2029 1.09575L38.8984 5.79128C40.3672 7.25229 40.3672 9.6274 38.8984 11.0962ZM22.2023 7.79138L1.68573 28.308L0.0294002 37.8006C-0.197173 39.0819 0.920067 40.1913 2.20138 39.9726L11.694 38.3084L32.2106 17.7918C32.5778 17.4246 32.5778 16.8309 32.2106 16.4637L23.5383 7.79138C23.1633 7.42417 22.5695 7.42417 22.2023 7.79138ZM9.69391 26.5501C9.2642 26.1203 9.2642 25.4328 9.69391 25.0031L21.7257 12.9713C22.1554 12.5416 22.843 12.5416 23.2727 12.9713C23.7024 13.401 23.7024 14.0885 23.2727 14.5183L11.2409 26.5501C10.8111 26.9798 10.1236 26.9798 9.69391 26.5501ZM6.87347 33.1207H10.6236V35.9567L5.58434 36.8396L3.15455 34.4098L4.0374 29.3705H6.87347V33.1207Z" fill="#EC0868"/>
</svg>
