<svg width="40" height="40" viewBox="0 0 40 40" fill="none" xmlns="http://www.w3.org/2000/svg">
<path d="M39.4625 1.4917C39.3696 1.05957 38.9423 0.632324 38.5088 0.539551C35.9934 0 34.024 0 32.0631 0C23.9981 0 19.1616 4.31274 15.551 10H7.4092C6.13204 10.0012 4.63134 10.9277 4.05868 12.0691L0.196533 19.7888C0.077179 20.0521 0.0104172 20.3361 0 20.625C0.000179583 21.1223 0.197844 21.5992 0.549534 21.9508C0.901224 22.3024 1.37815 22.4999 1.87545 22.5H9.98564L8.22981 24.2554C7.34191 25.143 7.2145 26.7755 8.22981 27.7905L12.2067 31.7676C13.0783 32.6416 14.7189 32.7954 15.744 31.7676L17.4998 30.0122V38.125C17.5 38.6223 17.6977 39.0992 18.0494 39.4508C18.401 39.8024 18.878 39.9999 19.3753 40C19.6642 39.9893 19.9483 39.9226 20.2118 39.8035L27.9249 35.9448C29.0678 35.3748 29.9958 33.8745 29.9958 32.5964V24.4373C35.6675 20.8191 39.9986 15.968 39.9986 7.94556C40.0059 5.97656 40.0059 4.00757 39.4625 1.4917ZM30.0032 13.125C29.3851 13.1249 28.781 12.9414 28.2672 12.598C27.7534 12.2545 27.353 11.7664 27.1166 11.1954C26.8802 10.6243 26.8184 9.99602 26.939 9.38988C27.0597 8.78374 27.3574 8.22699 27.7945 7.79002C28.2315 7.35306 28.7884 7.05551 29.3945 6.93499C30.0007 6.81447 30.629 6.8764 31.2 7.11295C31.7709 7.34949 32.259 7.75003 32.6023 8.26392C32.9456 8.77781 33.1289 9.38197 33.1289 10C33.1284 10.8288 32.7989 11.6235 32.2128 12.2094C31.6267 12.7954 30.8319 13.1247 30.0032 13.125Z" fill="#EC0868"/>
</svg>
