<svg width="46" height="45" viewBox="0 0 46 45" fill="none" xmlns="http://www.w3.org/2000/svg">
<path d="M22.8228 10.8357C22.9293 10.8797 23.0144 10.9851 23.1421 10.9851C23.2592 10.9851 23.4401 10.95 23.4507 10.8533C23.472 10.7303 23.2485 10.6512 23.1102 10.5984C22.9293 10.5369 22.6951 10.5106 22.5249 10.5897C22.4823 10.6072 22.4397 10.6512 22.461 10.6863C22.4929 10.8006 22.7058 10.783 22.8228 10.8357V10.8357ZM20.4922 10.9851C20.6199 10.9851 20.7051 10.8797 20.8115 10.8357C20.9285 10.783 21.1414 10.8006 21.184 10.6951C21.2052 10.66 21.1627 10.616 21.1201 10.5984C20.9498 10.5194 20.7157 10.5457 20.5348 10.6072C20.3964 10.66 20.173 10.7391 20.1942 10.8621C20.2049 10.95 20.3858 10.9939 20.4922 10.9851V10.9851ZM44.0219 35.487C43.6388 35.1355 43.4579 34.4676 43.2557 33.7557C43.0641 33.0438 42.8406 32.2793 42.1382 31.7871C41.9999 31.6904 41.8615 31.6026 41.7125 31.5323C41.5742 31.4619 41.4252 31.4004 41.2762 31.3565C42.2553 28.9573 41.8722 26.5668 40.8825 24.4049C39.6693 21.7596 37.5515 19.4483 35.9339 17.8664C34.1141 15.9769 32.3475 14.1841 32.3794 11.5388C32.4326 7.50496 32.9222 0.00850857 24.3127 -0.000279762C13.4152 -0.0178564 16.1396 9.08685 16.0225 11.8815C15.8416 13.938 15.3414 15.5551 13.6281 17.5676C11.6167 19.545 8.78592 22.7351 7.44501 26.0659C6.80649 27.639 6.50851 29.2385 6.7852 30.7501C6.09347 31.2598 5.572 32.042 5.01861 32.5253C4.57165 32.9032 3.92248 33.0438 3.20946 33.2548C2.49644 33.4657 1.71957 33.7821 1.24067 34.5291C1.01719 34.8718 0.942693 35.2409 0.942693 35.6188C0.942693 35.9616 1.00655 36.3131 1.0704 36.6559C1.1981 37.3677 1.33645 38.0356 1.15553 38.4838C0.602146 39.7493 0.527651 40.6282 0.921409 41.2697C1.32581 41.9113 2.13461 42.1925 3.06047 42.3507C4.90155 42.6671 7.40244 42.588 9.37123 43.4492C11.4784 44.3632 13.6174 44.6884 15.3202 44.3632C16.5546 44.1347 17.5656 43.5195 18.0765 42.588C19.4067 42.5792 20.8753 42.1134 23.2166 42.0079C24.8023 41.9025 26.7923 42.4737 29.0804 42.3683C29.1442 42.5704 29.2294 42.7725 29.3464 42.9571V42.9659C30.2297 44.4335 31.8793 45.1014 33.6352 44.9872C35.4018 44.8729 37.2642 44.0205 38.7753 42.5352C40.2227 41.094 42.6065 40.4963 44.1922 39.7054C44.9797 39.3099 45.6182 38.8178 45.6714 38.0971C45.714 37.3765 45.2032 36.5768 44.0219 35.487ZM23.1315 7.67193C24.1744 5.72092 26.7711 5.75608 27.814 7.63678C28.5057 8.88472 28.1971 10.3524 27.3564 11.1873C27.1861 11.117 26.7285 10.9588 26.0155 10.7566C26.1325 10.6512 26.3454 10.5194 26.4305 10.3524C26.9413 9.31535 26.4092 7.97953 25.4621 7.95316C24.6852 7.90922 23.9828 8.9023 24.2063 9.97448C23.77 9.79871 23.206 9.66688 22.8228 9.58779C22.7164 8.9814 22.7909 8.30469 23.1315 7.67193V7.67193ZM18.8001 6.66128C19.875 6.66128 21.0137 7.90922 20.8328 9.60537C20.4603 9.69325 20.0772 9.82508 19.7473 10.0096C19.875 9.22747 19.3961 8.24318 18.7256 8.28712C17.8317 8.34864 17.6827 10.1502 18.5341 10.7566C18.6405 10.8269 18.7363 10.7391 17.9062 11.24C16.246 9.9569 16.7888 6.66128 18.8001 6.66128V6.66128ZM17.3528 11.9958C18.0126 11.5915 18.8001 11.117 18.8533 11.073C19.3535 10.6863 20.29 9.82508 21.8225 9.82508C22.5781 9.82508 23.4826 10.0272 24.5788 10.6072C25.2492 10.9676 25.7813 10.9939 26.9839 11.4246C27.8778 11.7321 28.4419 12.277 28.1013 13.024C27.8246 13.648 26.9307 14.2895 25.6856 14.6147C24.5043 14.9311 23.5784 16.0208 21.6203 15.9242C21.2052 15.9066 20.8753 15.8363 20.5986 15.7396C19.7473 15.432 19.3003 14.8256 18.4702 14.4214C17.555 13.9995 17.0655 13.5074 16.9058 13.0768C16.7568 12.6461 16.9058 12.2858 17.3528 11.9958V11.9958ZM17.704 41.3488C17.4167 44.4335 13.0321 44.372 9.69049 42.9307C6.50851 41.5422 2.39002 42.3595 1.54929 41.0061C1.29388 40.593 1.29388 39.89 1.82599 38.686V38.6684C2.0814 38.0005 1.88984 37.2622 1.76213 36.568C1.63443 35.8825 1.57058 35.2497 1.85791 34.8103C2.23039 34.2215 2.76249 34.0106 3.43294 33.8172C4.52908 33.492 4.68871 33.5184 5.51879 32.9472C6.10411 32.4462 6.52979 31.8135 7.04061 31.3653C7.58336 30.8819 8.10482 30.6534 8.92426 30.7589C9.78627 30.8643 10.5312 31.3565 11.2549 32.165L13.3407 35.2937C14.3517 37.0425 17.9275 39.5472 17.704 41.3488V41.3488ZM17.555 39.0726C17.1187 38.4926 16.5334 37.8774 16.0225 37.3501C16.7781 37.3501 17.5337 37.1568 17.7998 36.568C18.0445 36.0231 17.7998 35.2585 17.0123 34.3797C15.5756 32.7802 12.9363 31.5235 12.9363 31.5235C11.4996 30.7852 10.6909 29.88 10.3184 28.8958C9.9459 27.9115 9.99911 26.8481 10.2865 25.8023C10.8398 23.7897 12.2659 21.8299 13.1811 20.5996C13.4259 20.4502 13.2662 20.8808 12.2552 22.4275C11.3507 23.8425 9.65857 27.1117 11.9785 29.6691C12.0424 27.8499 12.5639 25.9956 13.4472 24.2643C14.7242 21.8563 17.4167 17.6818 17.6295 14.3599C17.7466 14.4302 18.119 14.6411 18.2893 14.7202C18.7788 14.9575 19.1513 15.309 19.6302 15.6254C20.9498 16.5042 22.6632 16.4339 24.1425 15.7308C24.8023 15.4232 25.3344 15.0717 25.8345 14.9399C26.8881 14.6674 27.7288 14.1841 28.2077 13.6216C29.0272 16.2933 30.9428 20.1514 32.1666 22.0321C32.8158 23.0339 34.1141 25.1519 34.6781 27.7093C35.0293 27.7005 35.4231 27.7445 35.8381 27.8324C37.3067 24.6949 34.593 21.3114 33.3585 20.3711C32.8583 19.9668 32.837 19.791 33.0818 19.7998C34.4227 20.7841 36.1893 22.7615 36.8278 24.9849C37.1258 26.0044 37.179 27.0678 36.8704 28.1224C38.6157 28.72 40.6909 29.6955 40.1375 31.1807C39.9034 31.1719 39.797 31.1807 39.6906 31.1807C40.0311 30.2931 39.2755 29.634 37.2642 28.887C35.1783 28.1312 33.433 28.1312 33.1882 29.9855C31.9005 30.3546 31.2407 31.2774 30.9108 32.3847C30.6128 33.369 30.5277 34.5554 30.4426 35.8913C30.3894 36.568 30.0595 37.4732 29.7189 38.4399C26.3028 40.4524 21.5564 41.3312 17.555 39.0726V39.0726ZM44.9477 38.062C44.852 39.5384 40.5632 39.8109 38.2219 42.1486C36.8172 43.5283 35.0932 44.2929 33.582 44.3896C32.0708 44.4863 30.7618 43.9677 29.9956 42.6934C29.4954 41.7179 29.7402 40.6633 30.1127 39.5033C30.5064 38.2553 31.0917 36.9722 31.1662 35.9352C31.2514 34.5994 31.3472 33.4305 31.6132 32.5341C31.8899 31.6289 32.3156 31.0225 33.0712 30.6798C33.1031 30.6622 33.1457 30.6534 33.1776 30.6358C33.2627 31.7959 33.9545 32.9735 35.1783 33.2284C36.5192 33.5184 38.4454 32.5693 39.2649 31.7959C40.2227 31.7695 40.9357 31.7168 41.67 32.2441C42.7235 32.9911 42.4256 34.907 43.4898 35.9001C44.6178 36.9195 44.9797 37.6138 44.9477 38.062ZM17.7678 13.068C17.9807 13.2349 18.268 13.4634 18.6192 13.6919C19.3216 14.1489 20.3007 14.6235 21.5245 14.6235C22.759 14.6235 23.919 14.105 24.9087 13.6744C25.4301 13.4459 26.0687 13.0592 26.4837 12.7604C26.8988 12.4616 27.1116 12.2067 26.8136 12.1803C26.5156 12.154 26.5369 12.4088 26.1751 12.6286C25.7068 12.9098 25.1428 13.2789 24.6958 13.4898C23.9083 13.8589 22.6206 14.3862 21.5139 14.3862C20.4071 14.3862 19.5238 13.9644 18.864 13.5338C18.5341 13.314 18.2574 13.0943 18.0445 12.9274C17.8849 12.8043 17.8423 12.5231 17.5869 12.4967C17.4379 12.4879 17.3954 12.8219 17.7678 13.068V13.068Z" fill="#EC0868"/>
</svg>
